<svg width="115" height="151" viewBox="0 0 115 151" fill="none" xmlns="http://www.w3.org/2000/svg">
<path d="M0.90332 134.335H5.22686C7.19692 134.335 8.62771 134.662 9.51715 135.315C10.4076 135.969 10.8523 137.008 10.8523 138.434C10.8523 139.401 10.657 140.194 10.2674 140.814C9.8777 141.434 9.35921 141.807 8.71291 141.933V142.043C9.59404 142.272 10.2289 142.701 10.6186 143.328C11.0082 143.956 11.2035 144.79 11.2035 145.831C11.2035 147.309 10.7464 148.46 9.82991 149.287C8.91449 150.114 7.67073 150.527 6.09967 150.527H0.90332V134.335V134.335ZM3.84906 140.748H5.55936C6.35736 140.748 6.93612 140.604 7.29355 140.317C7.65203 140.028 7.83075 139.553 7.83075 138.888C7.83075 138.268 7.63644 137.823 7.2468 137.553C6.85715 137.283 6.24098 137.149 5.3983 137.149H3.84906V140.748V140.748ZM3.84906 143.472V147.692H5.76925C6.57972 147.692 7.17822 147.512 7.56579 147.15C7.95336 146.788 8.14559 146.234 8.14559 145.489C8.14559 144.146 7.32161 143.472 5.6747 143.472H3.84906V143.472ZM26.59 142.409C26.59 145.089 26.0195 147.15 24.8797 148.59C23.7398 150.03 22.1054 150.75 19.9764 150.75C17.8473 150.75 16.2129 150.03 15.073 148.59C13.9321 147.15 13.3627 145.083 13.3627 142.387C13.3627 139.692 13.9342 137.634 15.0782 136.213C16.2222 134.791 17.8608 134.08 19.9961 134.08C22.1314 134.08 23.7637 134.797 24.8953 136.229C26.0247 137.661 26.59 139.722 26.59 142.409V142.409ZM16.4508 142.409C16.4508 144.218 16.7449 145.581 17.3351 146.496C17.9242 147.412 18.8043 147.869 19.9764 147.869C22.3267 147.869 23.5019 146.049 23.5019 142.409C23.5019 138.762 22.3329 136.938 19.9951 136.938C18.823 136.938 17.9388 137.397 17.3434 138.317C16.748 139.238 16.4508 140.6 16.4508 142.409V142.409ZM42.0814 142.409C42.0814 145.089 41.5109 147.15 40.3711 148.59C39.2312 150.03 37.5968 150.75 35.4677 150.75C33.3387 150.75 31.7042 150.03 30.5644 148.59C29.4235 147.15 28.8541 145.083 28.8541 142.387C28.8541 139.692 29.4256 137.634 30.5696 136.213C31.7136 134.791 33.3522 134.08 35.4875 134.08C37.6227 134.08 39.2551 134.797 40.3867 136.229C41.5151 137.661 42.0814 139.722 42.0814 142.409ZM31.9412 142.409C31.9412 144.218 32.2352 145.581 32.8254 146.496C33.4145 147.412 34.2946 147.869 35.4667 147.869C37.8171 147.869 38.9922 146.049 38.9922 142.409C38.9922 138.762 37.8233 136.938 35.4854 136.938C34.3133 136.938 33.4291 137.397 32.8337 138.317C32.2383 139.238 31.9412 140.6 31.9412 142.409ZM50.3201 150.527H47.3744V137.192H43.6015V134.335H54.0929V137.192H50.3201V150.527ZM64.4316 146.031C64.4316 147.494 63.9806 148.645 63.0777 149.487C62.1748 150.329 60.9185 150.75 59.3101 150.75C57.8273 150.75 56.516 150.424 55.3762 149.775V146.586C56.3134 147.072 57.1073 147.416 57.7567 147.616C58.4061 147.816 58.9994 147.915 59.5387 147.915C60.185 147.915 60.6806 147.771 61.0256 147.484C61.3716 147.196 61.544 146.769 61.544 146.199C61.544 145.882 61.4682 145.6 61.3165 145.352C61.1648 145.105 60.9414 144.866 60.6463 144.637C60.3512 144.408 59.7517 144.043 58.8456 143.541C57.9967 143.076 57.3597 142.63 56.9358 142.201C56.5108 141.772 56.1721 141.274 55.9186 140.707C55.665 140.137 55.5383 139.473 55.5383 138.713C55.5383 137.281 55.9549 136.155 56.7883 135.335C57.6216 134.515 58.7729 134.106 60.2431 134.106C60.9653 134.106 61.6542 134.205 62.3098 134.405C62.9655 134.605 63.6513 134.884 64.3672 135.246L63.4164 137.915C62.6756 137.562 62.0625 137.314 61.5773 137.173C61.0921 137.033 60.6162 136.962 60.1475 136.962C59.5896 136.962 59.1625 137.114 58.8643 137.416C58.5661 137.719 58.4175 138.114 58.4175 138.602C58.4175 138.905 58.4778 139.169 58.5983 139.394C58.7188 139.619 58.91 139.837 59.1729 140.048C59.4358 140.259 60.0582 140.636 61.0401 141.184C62.3389 141.908 63.2294 142.633 63.7105 143.36C64.1916 144.086 64.4316 144.975 64.4316 146.031V146.031ZM72.3108 150.527H69.3651V137.192H65.5922V134.335H76.0837V137.192H72.3108V150.527ZM81.1678 144.314V150.527H78.222V134.335H82.2702C84.1582 134.335 85.5547 134.735 86.4608 135.536C87.3668 136.338 87.8199 137.554 87.8199 139.186C87.8199 140.139 87.5954 140.985 87.1455 141.727C86.6956 142.47 86.0587 143.051 85.2357 143.471C87.3263 147.111 88.6885 149.463 89.3223 150.526H86.0535L82.7368 144.313H81.1678V144.314ZM81.1678 141.523H82.1185C83.0495 141.523 83.7374 141.342 84.1811 140.98C84.6247 140.618 84.8461 140.049 84.8461 139.274C84.8461 138.506 84.6196 137.96 84.1665 137.634C83.7135 137.31 83.0121 137.148 82.0614 137.148H81.1678V141.523V141.523ZM99.5758 150.527L98.5679 146.673H93.5025L92.4946 150.527H89.3203L94.2236 134.269H97.825L102.748 150.527H99.5758V150.527ZM97.8645 143.793C96.9335 140.301 96.4088 138.326 96.2913 137.868C96.1739 137.41 96.0908 137.048 96.0399 136.783C95.831 137.728 95.2325 140.065 94.2433 143.793H97.8645ZM114.097 139.385C114.097 141.128 113.629 142.461 112.695 143.383C111.761 144.307 110.432 144.768 108.708 144.768H107.445V150.527H104.499V134.335H108.937C110.622 134.335 111.903 134.757 112.781 135.602C113.658 136.449 114.097 137.709 114.097 139.385V139.385ZM107.445 141.955H108.414C109.32 141.955 109.998 141.747 110.448 141.329C110.897 140.911 111.122 140.305 111.122 139.508C111.122 138.702 110.933 138.108 110.557 137.724C110.179 137.34 109.588 137.148 108.784 137.148H107.444V141.955H107.445ZM67.8397 66.7316C65.7793 65.9409 62.8127 65.8125 58.9402 65.8125H45.0313V90.0312H60.0187C62.6184 90.0312 64.4441 89.7297 65.4956 89.5021C67.3483 89.117 68.8975 88.3759 70.1423 87.4725C71.3871 86.5716 72.4106 85.2093 73.2127 83.4849C74.0138 81.7605 74.416 79.7468 74.416 77.4896C74.416 74.8449 73.8351 72.67 72.6734 70.7204C71.5128 68.7696 69.9012 67.5211 67.8397 66.7316ZM65.7034 56.303C67.7504 55.5934 69.2934 54.3098 70.3293 52.6666C71.3673 51.0233 71.8858 48.909 71.8858 46.4254C71.8858 44.0725 71.4016 41.9752 70.4332 40.1842C69.4648 38.3945 68.0818 37.1799 66.2853 36.5187C64.4856 35.86 61.4017 35.5391 57.0314 35.5391H45.0313V57.3359H58.0268C61.596 57.3359 64.1542 56.8528 65.7034 56.303V56.303ZM112.57 17.5276C112.57 8.07984 105.998 0.421875 97.8915 0.421875H17.1085C9.00177 0.421875 2.4297 8.07984 2.4297 17.5276V111.676C2.4297 121.123 9.00177 128.781 17.1085 128.781H97.8915C105.998 128.781 112.57 121.123 112.57 111.676V17.5276V17.5276ZM80.9517 86.7254C79.7495 89.5784 78.2615 91.7786 76.492 93.3262C74.7214 94.8726 72.501 96.2882 69.8316 97.0777C67.1623 97.8684 63.8913 98.5078 60.0187 98.5078H36.7188V27.0625H59.6457C64.2934 27.0625 68.0195 27.8133 70.827 29.247C73.6356 30.682 75.8332 32.9053 77.4261 35.8866C79.0159 38.8691 79.8118 41.997 79.8118 45.2532C79.8118 48.283 79.1052 51.1396 77.6963 53.8157C76.2852 56.4919 74.1552 58.6534 71.306 60.2967C74.9843 61.5536 77.8137 63.7006 79.791 66.7304C81.7684 69.7614 82.7575 73.3397 82.7575 77.4666C82.7565 80.787 82.1559 83.8736 80.9517 86.7254V86.7254Z" fill="#5B4282"/>
</svg>
