<svg width="106" height="169" viewBox="0 0 106 169" fill="none" xmlns="http://www.w3.org/2000/svg">
<path d="M52.9351 168.548L9.64676 155.01L0 33.1241H106L96.343 154.992L52.9351 168.548Z" fill="#4353AD"/>
<path d="M88.0757 147.232L96.3272 43.0906H52.9998V158.186L88.0757 147.232" fill="#485FB5"/>
<path d="M52.9997 127.12L52.9415 127.137L38.1629 122.641L37.218 110.719H23.8969L25.7559 134.191L52.9387 142.692L52.9997 142.673V127.12ZM19.7249 58.0393L20.9311 72.9878H52.9997V58.0393H19.7249ZM22.1148 88.2955L23.304 103.245H52.9997V88.2955H22.1148" fill="#EDEDED"/>
<path d="M63.5202 0.000124215H79.5928V6.58382H70.242V7.90118H79.5928V23.0436H63.5202V16.13H72.8717V14.8137H63.5208V0.000124215H63.5202ZM44.2334 0.000124215H60.3054V6.58382H50.9547V7.90118H60.3054V23.0436H44.2339V16.13H53.5849V14.8137H44.233V0.000124215H44.2334ZM24.9468 0.000124215H41.0186V7.57133H31.6681V15.1436H41.0194V22.7148H24.9468V0.000124215Z" fill="white"/>
<path d="M83.8003 88.2959L86.1956 58.0397H52.9543V72.9881H71.653L70.4458 88.2959H52.9543V103.245H69.2951L67.7538 122.633L52.9539 127.132V142.685L80.158 134.191L80.3573 131.666L83.4765 92.3101L83.8003 88.2959Z" fill="white"/>
</svg>
