<svg width="126" height="127" viewBox="0 0 126 127" fill="none" xmlns="http://www.w3.org/2000/svg">
<path d="M123.884 57.4945L68.7673 2.3805C65.5953 -0.7935 60.4473 -0.7935 57.2703 2.3805L45.8273 13.8265L60.3453 28.3445C63.7203 27.2055 67.5883 27.9695 70.2773 30.6585C72.9803 33.3645 73.7393 37.2655 72.5703 40.6515L86.5623 54.6455C89.9473 53.4785 93.8543 54.2325 96.5563 56.9405C100.336 60.7175 100.336 66.8405 96.5563 70.6195C92.7763 74.3995 86.6553 74.3995 82.8733 70.6195C80.0313 67.7755 79.3283 63.6005 80.7683 60.0985L67.7203 47.0495L67.7183 81.3905C68.6403 81.8455 69.5093 82.4535 70.2773 83.2185C74.0563 86.9955 74.0563 93.1165 70.2773 96.9015C66.4983 100.679 60.3733 100.679 56.5983 96.9015C52.8203 93.1175 52.5103 86.9965 56.2873 83.2185C57.2213 82.2855 58.1423 81.5805 59.1423 81.1085V46.4495C58.1423 45.9775 57.2223 45.2775 56.2863 44.3385C53.4253 41.4785 52.8903 37.2785 54.3583 33.7625L40.1253 19.4495L2.37127 57.2395C-0.803726 60.4165 -0.783726 65.5645 2.39127 68.7395L57.5173 123.854C60.6903 127.028 65.8423 127.028 69.0203 123.854L123.88 68.9955C127.055 65.8195 127.058 60.6685 123.884 57.4945V57.4945Z" fill="#F34F29"/>
</svg>
