<svg width="63" height="161" viewBox="0 0 63 161" fill="none" xmlns="http://www.w3.org/2000/svg">
<path d="M31.2192 126.793C25.4847 126.822 19.7666 126.068 14.1789 124.546C12.5179 124.103 10.8887 123.509 9.30605 122.767L13.244 130.711L14.7843 155.53C14.7843 158.315 22.2728 160.568 31.505 160.568C40.7371 160.568 48.2256 158.315 48.2256 155.53L49.4462 130.442L53.1711 122.744C51.5753 123.498 49.9313 124.1 48.2546 124.546C42.6685 126.068 36.9521 126.822 31.2192 126.793V126.793ZM53.297 46.0331C46.067 47.0946 38.7856 47.5933 31.5001 47.5257C24.2146 47.5933 16.9333 47.0946 9.70324 46.0331C7.40684 45.7043 5.13826 45.1457 2.92199 44.3633C2.34486 44.1519 1.78546 43.8781 1.2509 43.5455L4.85949 82.7875C5.02741 82.1127 5.2147 81.4379 5.42137 80.7631C5.83997 79.3837 6.32514 78.0338 6.87449 76.72C7.41755 75.4332 8.02573 74.1861 8.69574 72.9856C9.32785 71.8499 10.0271 70.7683 10.7882 69.7488C11.4779 68.8182 12.2401 67.9661 13.0648 67.204C13.7881 66.5333 14.5808 65.9741 15.4237 65.5398C16.169 65.1624 16.9716 64.9678 17.7826 64.9679C18.7018 64.9746 19.6023 65.275 20.3886 65.8372C21.3437 66.5524 22.1486 67.5145 22.7426 68.6508C22.9016 68.9138 23.0106 69.2142 23.0623 69.5315C23.1058 69.8088 23.1285 70.0901 23.1301 70.3721C23.1551 70.8994 23.0213 71.42 22.7523 71.8419C22.6483 72.0071 22.5132 72.1417 22.3577 72.2349C22.2023 72.3282 22.0306 72.3777 21.8562 72.3794C21.6821 72.3694 21.5123 72.3126 21.3596 72.2136C21.2068 72.1145 21.0752 71.9756 20.9746 71.8075C20.629 71.2785 20.3242 70.7139 20.064 70.1205C19.817 69.5522 19.4603 69.0605 19.0226 68.6851C18.6581 68.3935 18.2278 68.2381 17.7875 68.239C16.9772 68.2901 16.2018 68.6447 15.5739 69.2513C14.7044 70.0233 13.9215 70.9226 13.244 71.9276C12.4225 73.1266 11.6824 74.4001 11.0304 75.7363C10.3312 77.1515 9.70675 78.6164 9.16074 80.1226C8.63671 81.5579 8.20441 83.0375 7.86746 84.5489C7.56694 85.8254 7.40419 87.1416 7.38308 88.4663C7.3843 88.8641 7.40695 89.2614 7.4509 89.6558C7.48925 90.038 7.57408 90.4116 7.70277 90.7652C7.80969 91.0776 7.97532 91.3572 8.18715 91.583C8.41302 91.8021 8.69905 91.9161 8.99121 91.9032C9.4298 91.8792 9.85694 91.7301 10.2361 91.4686C10.7496 91.1418 11.2361 90.7589 11.6892 90.3249C12.2144 89.8264 12.7157 89.2937 13.1907 88.7293C13.6945 88.1384 14.1627 87.5379 14.5954 86.9279C15.0281 86.3179 15.4124 85.7346 15.7482 85.178C16.0338 84.7174 16.2865 84.2296 16.5039 83.7197L17.8795 78.8588C17.9938 78.4064 18.224 78.0069 18.5382 77.715C18.7816 77.5044 19.0745 77.3885 19.3762 77.3833C19.5162 77.3835 19.6553 77.4106 19.7879 77.4634C19.9314 77.5195 20.0625 77.6128 20.1714 77.7365C20.2804 77.8602 20.3645 78.0111 20.4176 78.1782C20.4854 78.3861 20.5183 78.6075 20.5145 78.8302C20.5168 79.4559 20.4665 80.0805 20.3643 80.6945C20.2676 81.2748 20.1414 81.8477 19.9865 82.4101C19.8348 82.9629 19.6652 83.5176 19.4779 84.0743C19.2906 84.6309 19.1082 85.2142 18.9306 85.8242C18.8434 86.0337 18.7721 86.2519 18.7175 86.4761C18.6141 86.8574 18.4882 87.3168 18.3396 87.8544C18.1911 88.3919 18.0296 89.0096 17.8553 89.7072L17.3225 91.7946C17.1384 92.5037 16.964 93.1995 16.7993 93.8819C16.6346 94.5644 16.4845 95.182 16.3489 95.7348L16.0146 97.1187C15.9275 97.4905 15.8693 97.6906 15.85 97.7821C15.7899 98.0341 15.7104 98.2791 15.6126 98.5141C15.5052 98.7828 15.3771 99.0394 15.23 99.2804C15.0929 99.4978 14.9297 99.6905 14.7456 99.8523C14.5908 100.002 14.3982 100.086 14.1982 100.092C14.0662 100.106 13.9335 100.078 13.813 100.013C13.6925 99.9481 13.5883 99.8474 13.5104 99.7208C13.3357 99.2964 13.2621 98.824 13.2973 98.354V98.0623C13.2927 97.9595 13.2927 97.8564 13.2973 97.7535C13.36 97.331 13.454 96.9157 13.5782 96.5125C13.7171 95.9064 13.8786 95.2201 14.0626 94.4538C14.2467 93.6875 14.4533 92.8945 14.6826 92.0748C14.9054 91.2551 15.1056 90.5212 15.2832 89.8731C14.7601 90.5631 14.1934 91.2494 13.5831 91.9318C12.992 92.5942 12.3641 93.2094 11.7037 93.7733C11.0975 94.2932 10.4484 94.7396 9.76621 95.1057C9.17774 95.4327 8.53711 95.6081 7.88683 95.6204C7.26189 95.6404 6.6446 95.4543 6.10433 95.0829C6.0123 95.02 5.92996 94.9456 5.84762 94.8713L7.85777 119.759C8.3809 121.309 18.2331 125.112 31.2289 125.112C44.2246 125.112 54.0865 121.303 54.6 119.754L57.5062 90.1647L56.8136 90.9196C56.0662 91.7475 55.2837 92.5301 54.4692 93.2643C53.8059 93.8702 53.084 94.3809 52.3186 94.7855C51.6089 95.1463 50.8436 95.3293 50.0711 95.323C49.4532 95.3715 48.8398 95.1698 48.3321 94.7512C48.1307 94.5622 47.97 94.3196 47.8631 94.0433C47.7562 93.7671 47.7062 93.4648 47.717 93.1614V93.007C47.7128 92.948 47.7128 92.8887 47.717 92.8297C47.7857 92.3209 47.9424 91.8343 48.1772 91.4C48.4705 90.8184 48.794 90.2588 49.1459 89.7244C49.5205 89.1449 49.9193 88.5578 50.3423 87.963C50.7653 87.3683 51.1577 86.8059 51.5193 86.276C51.8406 85.8098 52.1398 85.3229 52.4154 84.8177C52.6125 84.5031 52.7346 84.1318 52.769 83.7426C52.7715 83.6676 52.7592 83.5929 52.7332 83.5245C52.7071 83.456 52.668 83.3956 52.6189 83.348C52.4752 83.2385 52.3049 83.1883 52.1345 83.205C51.7096 83.2132 51.292 83.3365 50.9139 83.5653C50.4666 83.8276 50.0484 84.1541 49.669 84.5375C49.2413 84.9667 48.8414 85.4332 48.4726 85.9329C48.0846 86.4559 47.7192 87.0018 47.3779 87.5684C47.0389 88.1327 46.7289 88.7045 46.4479 89.284C46.167 89.8635 45.928 90.3916 45.7311 90.8681L45.4792 91.5086C45.3694 91.7831 45.2515 92.0939 45.1256 92.4408C44.9996 92.7877 44.864 93.1423 44.7187 93.5045C44.5766 93.8857 44.4458 94.2308 44.3264 94.5396L44.0067 95.4088C43.913 95.6643 43.8468 95.8396 43.8081 95.935C43.7693 96.0303 43.6886 96.2647 43.5659 96.6384C43.4529 96.9815 43.3221 97.3856 43.1736 97.8507L42.6892 99.309L42.229 100.756L41.8512 101.957C41.7446 102.3 41.672 102.529 41.6429 102.66C41.5475 103.007 41.431 103.345 41.2942 103.672C41.1699 103.973 41.0154 104.256 40.834 104.513C40.6684 104.745 40.4681 104.939 40.2431 105.085C40.0144 105.232 39.7575 105.307 39.4971 105.302C39.1838 105.318 38.8746 105.214 38.6156 105.005C38.4857 104.86 38.3865 104.681 38.326 104.482C38.2654 104.283 38.2451 104.071 38.2668 103.861C38.2675 103.576 38.2967 103.292 38.354 103.015C38.4138 102.724 38.4882 102.437 38.5768 102.157C38.664 101.871 38.7561 101.585 38.8529 101.328C38.9498 101.07 39.0321 100.802 39.1096 100.55C39.6425 99.1699 40.185 97.7878 40.7371 96.4039C41.2893 95.02 41.8189 93.6475 42.3259 92.2864C42.4325 92.0005 42.5293 91.7145 42.6311 91.4457L42.539 91.5544C41.9291 92.2473 41.282 92.893 40.6015 93.4873C40.013 94.0112 39.3779 94.458 38.7076 94.8198C38.1356 95.1363 37.5132 95.3058 36.8815 95.3173C36.5339 95.3301 36.1882 95.252 35.8692 95.0886C35.6125 94.9499 35.3894 94.7376 35.2201 94.471C35.0504 94.1921 34.9316 93.8747 34.8714 93.5388C34.8714 93.4187 34.8326 93.2872 34.8181 93.1614C34.6437 93.3215 34.4693 93.4759 34.295 93.6246C33.7283 94.1034 33.1232 94.5153 32.4882 94.8541C31.9885 95.138 31.4441 95.2957 30.8898 95.3173C30.6742 95.3246 30.4598 95.2774 30.2609 95.1788C30.0621 95.0801 29.8835 94.9324 29.737 94.7455C29.396 94.1967 29.239 93.5184 29.2962 92.8411C29.3081 92.0955 29.3877 91.3535 29.5336 90.628C29.2521 91.2058 28.9279 91.7531 28.5648 92.2635C28.1735 92.8219 27.7317 93.3281 27.2473 93.7733C26.7433 94.234 26.1853 94.6058 25.5907 94.877C24.9539 95.1646 24.2769 95.3082 23.5951 95.3002C23.2779 95.302 22.9619 95.2539 22.6554 95.1572C22.3634 95.065 22.0933 94.8948 21.8659 94.6597C21.624 94.3995 21.4366 94.0764 21.3186 93.7161C21.1682 93.2431 21.0974 92.7399 21.1103 92.2349C21.1103 92.2349 21.1103 92.0119 21.1684 91.6059C21.2544 90.9553 21.3807 90.3131 21.5462 89.6844C21.7593 88.8075 22.0823 87.6637 22.515 86.2531C22.9477 84.8425 23.5741 83.1536 24.3943 81.1863C24.5458 80.7385 24.7927 80.3444 25.1112 80.0426C25.3667 79.8204 25.6755 79.7002 25.9928 79.6994C26.1386 79.7012 26.2836 79.7262 26.4239 79.7738C26.5725 79.8221 26.7133 79.8994 26.8404 80.0025C26.9672 80.1054 27.073 80.2402 27.1504 80.3971C27.2337 80.5712 27.274 80.7693 27.2667 80.969C27.2677 81.1023 27.2531 81.2351 27.2231 81.3636C27.1443 81.6829 27.0372 81.9916 26.9034 82.2843C26.7419 82.6656 26.5514 83.1002 26.3318 83.5882C26.1122 84.0762 25.883 84.6042 25.644 85.1723C25.4018 85.7365 25.1774 86.3217 24.9707 86.9279C24.7641 87.5334 24.5862 88.152 24.4379 88.7808C24.2942 89.3772 24.2097 89.9913 24.1861 90.6108C24.1847 90.8493 24.2365 91.0839 24.3362 91.2913C24.3842 91.3913 24.4551 91.4733 24.5408 91.5279C24.6265 91.5826 24.7234 91.6076 24.8206 91.6001C25.4843 91.5915 26.1279 91.3308 26.6564 90.8567C27.264 90.3301 27.8068 89.7065 28.2693 89.0038C28.7683 88.2544 29.2153 87.4589 29.6062 86.6248C30.0066 85.7785 30.3392 85.0026 30.604 84.2973C30.7945 83.8077 30.9563 83.3033 31.0884 82.7875C31.2275 82.2822 31.3891 81.7858 31.5728 81.3007C31.7167 80.8883 31.9109 80.503 32.1492 80.1569C32.2462 80.0123 32.37 79.8959 32.511 79.8165C32.6521 79.7372 32.8067 79.6972 32.9629 79.6994C33.1254 79.6924 33.287 79.7319 33.4337 79.8145C33.5805 79.8972 33.7081 80.0205 33.8057 80.1741C34.0165 80.5025 34.1259 80.906 34.1157 81.3178C34.0972 81.6695 34.0301 82.0153 33.9171 82.3415C33.7848 82.7761 33.6233 83.2717 33.4328 83.8284C33.2423 84.385 33.0227 84.9816 32.774 85.6183C32.5383 86.255 32.3187 86.8993 32.1153 87.5513C31.9255 88.1814 31.7639 88.8227 31.6309 89.4728C31.5042 90.0443 31.4375 90.632 31.4323 91.2227C31.4215 91.3254 31.4311 91.4296 31.4602 91.5272C31.4893 91.6248 31.5372 91.7131 31.6001 91.7851C31.663 91.8572 31.7392 91.911 31.8227 91.9424C31.9062 91.9739 31.9948 91.982 32.0814 91.9661C32.4787 91.9378 32.8665 91.8112 33.2196 91.5944C33.7266 91.3075 34.2057 90.9566 34.6486 90.5479C34.7745 90.4335 34.9004 90.3191 35.0215 90.199C35.1468 89.5634 35.3086 88.9386 35.5059 88.329C35.8514 87.2539 36.2018 86.1845 36.557 85.1208L37.5257 82.2042L42.0062 68.8624C42.1333 68.3992 42.385 67.9976 42.7231 67.7186C42.994 67.5087 43.3097 67.3937 43.6337 67.387C43.9372 67.3865 44.2314 67.5097 44.4668 67.7358C44.6013 67.8782 44.7055 68.0559 44.7712 68.2545C44.8368 68.4532 44.862 68.6673 44.8446 68.8796C44.8412 69.1473 44.7986 69.4124 44.7187 69.663C44.625 69.9666 44.5183 70.2644 44.399 70.5551C44.1536 71.2033 43.8598 71.9963 43.5175 72.9341C43.1752 73.872 42.8103 74.8919 42.4228 75.9937C42.032 77.0955 41.6332 78.2392 41.2264 79.4249L40.03 82.9076C39.6425 84.0514 39.2776 85.1227 38.9353 86.1216L38.0537 88.7579C37.9314 89.1212 37.8247 89.4914 37.734 89.8674C37.6365 90.238 37.5843 90.6231 37.579 91.0111C37.5718 91.183 37.6018 91.3542 37.6662 91.5086C37.7021 91.5745 37.7529 91.6271 37.8128 91.6604C37.8728 91.6938 37.9395 91.7066 38.0053 91.6974C38.276 91.6766 38.5401 91.5889 38.7803 91.44C39.1297 91.2425 39.4665 91.0151 39.7878 90.7595C40.1494 90.4774 40.524 90.1533 40.9115 89.7873C41.299 89.4213 41.6865 89.04 42.074 88.6435C42.4583 88.2623 42.8264 87.8696 43.1784 87.4655C43.5304 87.0614 43.8436 86.6992 44.1181 86.3789C44.1828 86.3019 44.2603 86.2415 44.3457 86.2016C44.5104 85.6298 44.6654 85.0579 44.7962 84.486C44.8737 84.2382 44.9819 83.8855 45.1207 83.428C45.263 82.9708 45.4246 82.5222 45.6051 82.0841C45.7668 81.6765 45.9684 81.2926 46.2057 80.9404C46.2902 80.8076 46.399 80.6991 46.524 80.6228C46.6489 80.5466 46.7868 80.5046 46.9275 80.5C47.0812 80.4835 47.2362 80.5034 47.3834 80.5583C47.5306 80.6133 47.6671 80.7024 47.7848 80.8203C47.8798 80.949 47.9522 81.0987 47.998 81.2606C48.0437 81.4226 48.0618 81.5936 48.0512 81.7639C48.048 81.896 48.0383 82.0277 48.0221 82.1585C48.0221 82.3358 47.9786 82.5302 47.9495 82.7304C47.9204 82.9305 47.8865 83.1192 47.8526 83.3022C47.8292 83.4366 47.7968 83.5685 47.7557 83.6968C48.1206 83.2279 48.5146 82.7628 48.9376 82.3015C49.3517 81.8484 49.7919 81.4299 50.2551 81.0491C50.6903 80.6895 51.1563 80.3847 51.6453 80.1398C52.0939 79.9128 52.5764 79.7942 53.0645 79.7909C53.3925 79.7914 53.7187 79.8472 54.0332 79.9568C54.3405 80.0596 54.6305 80.224 54.8906 80.4429C55.1425 80.6562 55.3523 80.9312 55.5057 81.2492C55.6707 81.5983 55.7527 81.9934 55.7431 82.393C55.7314 83.0207 55.6076 83.6384 55.3798 84.2058C55.1229 84.8792 54.8183 85.5259 54.4692 86.1387C54.1043 86.7869 53.7103 87.4178 53.2873 88.0316C52.8643 88.6455 52.4671 89.204 52.0957 89.7072L51.1609 90.9882C50.9867 91.1891 50.8527 91.4333 50.7686 91.7031C50.7665 91.8543 50.8153 92.0003 50.9042 92.1091C51.0302 92.2268 51.1899 92.2822 51.3498 92.2635C51.6155 92.2232 51.8694 92.1096 52.0909 91.9318C52.5672 91.5868 53.0235 91.2047 53.4568 90.7881C54.0445 90.2429 54.7889 89.5128 55.6898 88.5978C56.3098 87.9687 57.0315 87.2196 57.8501 86.3675L61.7639 43.5912C61.2294 43.924 60.67 44.1978 60.0928 44.409C57.8706 45.177 55.5972 45.7203 53.297 46.0331V46.0331ZM31.5001 35.8938C14.5857 35.8938 0.87793 38.1241 0.87793 40.8805C0.87793 43.637 14.547 45.8559 31.5001 45.8559C48.4532 45.8559 62.1223 43.6255 62.1223 40.8691C62.1223 38.1127 48.3951 35.8938 31.5001 35.8938ZM43.7257 42.3388C43.7257 42.985 42.0982 43.4826 40.0881 43.4826C38.0779 43.4826 36.4504 42.9565 36.4504 42.3388C36.4504 41.7212 38.0779 41.1951 40.0881 41.1951C42.0982 41.1951 43.7112 41.6812 43.7112 42.3274L43.7257 42.3388Z" fill="#DA4648"/>
<path d="M37.1672 41.8069C37.1495 41.8372 37.1394 41.873 37.1382 41.9098C37.1382 42.3273 38.4508 42.6647 40.0444 42.6647C41.638 42.6647 42.9507 42.3273 42.9507 41.9098L46.7772 23.6098L61.9963 4.64073C62.316 4.21182 61.6669 2.87936 60.5819 1.73561C59.4969 0.591856 58.3247 0.2087 57.9615 0.643325L41.7785 20.7905L37.1672 41.8069Z" fill="#DA4648"/>
</svg>
