<svg width="107" height="169" viewBox="0 0 107 169" fill="none" xmlns="http://www.w3.org/2000/svg">
<path d="M9.73324 155.01L0 33.1234H106.953L97.2093 154.991L53.411 168.548L9.73324 155.01Z" fill="#E53D20"/>
<path d="M53.4766 158.186L88.8677 147.231L97.1945 43.0895H53.4766V158.186Z" fill="#F15123"/>
<path d="M53.4766 88.2958H35.7589L34.5352 72.9877H53.4766V58.0387H53.4302H19.9021L20.2227 62.0491L23.5136 103.244H53.4766V88.2958Z" fill="#EDEDED"/>
<path d="M53.4772 127.119L53.4185 127.137L38.5068 122.641L37.5531 110.719H30.3073H24.1123L25.9883 134.191L53.4156 142.691L53.4772 142.672V127.119Z" fill="#EDEDED"/>
<path d="M9.95093 -3.46264e-05H16.7554V7.50557H22.9796V-3.46264e-05H29.7844V22.7289H22.9799V15.118H16.7557V22.7289H9.95142V-3.46264e-05H9.95093Z" fill="white"/>
<path d="M38.7327 7.53725H32.7424V-3.46264e-05H51.5304V7.53725H45.5374V22.7289H38.7332V7.53725H38.7327Z" fill="white"/>
<path d="M54.512 -3.46264e-05H61.6071L65.9715 7.98615L70.3314 -3.46264e-05H77.4292V22.7289H70.6529V11.4631L65.9715 19.5446H65.8545L61.17 11.4631V22.7289H54.512V-3.46264e-05Z" fill="white"/>
<path d="M80.8154 -3.46264e-05H87.6219V15.2161H97.1907V22.7289H80.8154V-3.46264e-05Z" fill="white"/>
<path d="M53.4304 88.2959V103.244H69.9179L68.3639 122.632L53.4304 127.132V142.684L80.8794 134.191L81.0807 131.666L84.2273 92.3099L84.5539 88.2959H80.9458H53.4304Z" fill="white"/>
<path d="M53.4304 58.0389V72.9879H85.7292H85.7722L86.0408 69.6277L86.6508 62.0494L86.971 58.0389H53.4304" fill="white"/>
</svg>
