<svg width="244" height="93" viewBox="0 0 244 93" fill="none" xmlns="http://www.w3.org/2000/svg">
<path fill-rule="evenodd" clip-rule="evenodd" d="M233.755 6.84241L244 6.9364C244 6.9364 224.952 50.0303 223.397 53.5424C222.892 54.6797 222.124 55.9063 221.736 57.4267C220.752 61.249 219.742 69.6331 219.742 69.6331L210.368 69.7106C210.368 69.7106 211.826 60.9717 211.766 56.3168C211.713 52.25 210.47 48.1888 209.772 44.1103C209.068 39.9825 208.111 31.9039 208.111 31.9039H217.748L219.077 40.7814L233.755 6.84241Z" fill="white"/>
<path fill-rule="evenodd" clip-rule="evenodd" d="M214.355 15.9306C216.246 17.8339 217.406 28.3313 217.406 28.3313C217.406 28.3313 207.513 28.5749 202.129 28.5749H197.477L191.828 69.633H183.188C183.188 69.633 188.565 25.0134 189.834 16.9238C190.246 14.3053 192.652 14.7541 196.716 14.7541H203.206C207.397 14.7541 212.295 13.8612 214.355 15.9306Z" fill="white"/>
<path fill-rule="evenodd" clip-rule="evenodd" d="M174.133 35.9274C174.133 35.9274 174.403 33.2917 173.219 30.2401C172.209 27.6381 171.276 27.0334 168.617 26.8948C161.11 26.5008 161.256 35.7888 161.256 35.7888L174.133 35.9274ZM182.275 25.2914C183.375 31.9163 181.278 47.4845 181.278 47.4845C181.278 47.4845 170.328 47.1791 164.331 47.4845C162.466 47.5793 160.233 47.1462 159.678 48.5944C158.897 50.6247 159.963 53.7491 160.867 55.0689C161.908 56.5892 163.935 56.7616 164.663 56.9166C169.531 57.949 179.72 57.183 179.72 57.183L177.955 70.2322C177.955 70.2322 163.556 71.4369 156.355 68.5678C154.933 68.0022 153.6 66.8595 152.7 65.2389C152.454 64.7955 152.241 64.1909 152.008 63.6692C151.822 63.2525 151.281 61.8826 151.038 60.8001C149.393 53.482 151.231 39.4615 153.032 31.9492C153.241 31.0782 153.504 29.9746 153.78 29.0362C154.125 27.866 154.418 26.5454 154.693 25.846C154.879 25.3635 155.109 25.0525 155.302 24.5974C155.524 24.0593 155.783 23.5377 156.023 23.0724C156.687 21.7847 157.441 20.8746 158.349 19.7435C161.349 15.9924 166.779 13.0795 173.302 14.1948C175.758 14.6162 179.467 16.081 181.278 20.2981C181.763 21.4244 182.002 23.6599 182.275 25.2914Z" fill="white"/>
<path fill-rule="evenodd" clip-rule="evenodd" d="M142.647 14.7042L151.025 14.6212C151.025 14.6212 146.356 51.6009 143.976 69.6333H134.339C127.604 69.6333 121.605 71.0259 119.053 62.9747C116.578 55.1577 118.94 42.3019 120.05 33.5685C120.835 27.3877 122.487 14.7544 122.487 14.7544L131.166 14.6212C131.166 14.6212 128.714 34.2899 127.693 44.1105C127.328 47.6281 126.574 50.9406 127.361 53.5426C128.109 56.0177 129.156 56.1947 132.346 56.3169C133.356 56.3561 136.666 56.3169 136.666 56.3169L142.647 14.7042Z" fill="white"/>
<path fill-rule="evenodd" clip-rule="evenodd" d="M103.435 41.3361C104.313 36.1321 105.592 30.4894 105.429 25.8008C105.253 20.7855 102.734 16.2191 101.109 15.2596C96.2146 12.374 91.6322 16.4078 89.8111 19.6976C87.4547 23.9593 86.6572 28.9362 85.8231 35.7882C85.202 40.8756 84.6935 46.2464 85.8231 50.2137C87.8234 57.2271 94.0609 55.6958 100.777 55.7624C101.774 51.3016 102.598 46.2911 103.435 41.3361ZM115.066 20.8074C116.023 32.4257 112.351 45.2486 109.822 56.3999C112.401 56.7884 114.661 56.3396 114.824 56.6608C114.993 57.0775 113.095 69.9716 112.434 70.0045C110.387 70.0938 103.605 70.1878 100.777 70.1878C91.5487 70.1878 82.9155 71.192 78.5128 63.53C76.725 60.4173 75.4889 55.0794 75.1896 51.3236C74.6909 45.0535 75.3158 38.1514 76.1864 32.4593C76.9741 27.3211 77.9841 22.4719 79.5097 18.0331C83.3874 6.73133 90.1334 -1.65747 101.442 0.278766C103.635 0.656301 106.785 2.25965 108.752 4.16221C108.888 4.29615 109.364 4.92825 109.473 5.03947C112.132 7.86394 114.554 14.6047 115.066 20.8074Z" fill="white"/>
<path fill-rule="evenodd" clip-rule="evenodd" d="M74.2354 14.7711C73.6771 19.0156 73.1189 23.8265 72.5306 28.0209H63.2261C63.9471 23.3714 64.4988 18.7493 65.2198 14.7045C68.1973 14.7045 70.9656 14.7711 74.2354 14.7711Z" fill="white"/>
<path fill-rule="evenodd" clip-rule="evenodd" d="M62.8944 31.9043H71.8663C70.6935 42.7463 68.3709 60.2343 66.5498 72.4071C65.4098 80.0252 64.6489 85.5848 61.5649 89.6069C61.289 89.968 61.13 89.7964 60.9006 90.1622C60.332 91.0669 57.7036 92.1157 56.2483 92.3812C53.8821 92.8089 51.2072 92.4368 48.2996 92.3374C49.0605 87.6934 49.9213 82.1173 50.5992 77.9558C57.6871 79.3876 57.8668 68.2017 59.239 57.4271C60.0332 51.2017 62.4393 34.4014 62.8944 31.9043Z" fill="white"/>
<path fill-rule="evenodd" clip-rule="evenodd" d="M41.9587 60.2016L41.7663 61.0334C38.4895 71.6859 32.6842 78.2223 24.4032 78.5105C20.5321 78.6437 16.8434 76.9855 14.434 75.1816C9.23377 71.2809 4.86016 64.0467 2.4714 56.3174C-0.955059 45.2373 -1.57289 29.8241 5.55164 18.3116C5.66142 18.3116 4.68752 20.8079 4.7973 20.8079L4.6012 21.8732C-0.53285 48.7103 15.2845 71.7086 30.6604 69.0784C34.3556 68.4463 39.0679 65.0673 41.9587 60.2016Z" fill="#21609B"/>
<path fill-rule="evenodd" clip-rule="evenodd" d="M32.6544 49.1044C36.5227 49.149 40.5633 46.1303 42.9558 41.892C40.8626 50.7641 34.8015 56.4671 26.6731 54.6531C19.8675 53.1327 13.3843 41.6978 12.7163 30.2401C12.2279 21.9015 13.9688 16.9246 16.837 10.8879C15.8401 14.0453 15.4677 16.4805 15.3748 18.0337C14.285 36.0716 24.0047 49.0104 32.6544 49.1044Z" fill="#21609B"/>
<path fill-rule="evenodd" clip-rule="evenodd" d="M42.5671 26.7003C41.9657 29.0031 38.5031 33.3526 36.9742 33.8962C30.9197 36.0494 27.042 31.2558 25.0112 25.8011C24.7091 24.9857 24.1508 22.7612 24.0509 22.1949C23.2632 17.7232 23.6254 10.9597 25.9752 7.4585C25.2673 10.7874 25.1641 14.6544 25.5366 17.1679C25.7622 18.6882 26.45 21.3411 27.1382 23.0103C28.3907 26.0509 29.1849 26.7896 30.7936 28.4039C31.5179 29.1307 32.2952 29.7135 32.6311 29.8741C34.1562 30.6229 37.3763 32.5983 42.5671 26.7003Z" fill="#21609B"/>
</svg>
