<svg width="114" height="143" viewBox="0 0 114 143" fill="none" xmlns="http://www.w3.org/2000/svg">
<path d="M0 0H114V138.874H0V0Z" fill="#F7DF1E"/>
<path d="M29.9748 130.297L38.6989 123.865C40.3819 127.5 41.9129 130.576 45.5854 130.576C49.1056 130.576 51.325 128.898 51.325 122.373V78H62.0381V122.558C62.0381 136.075 55.534 142.228 46.0446 142.228C37.4745 142.228 32.4998 136.821 29.9746 130.295" fill="black"/>
<path d="M67.8572 128.898L76.5802 122.745C78.8765 127.314 81.8609 130.669 87.1407 130.669C91.5797 130.669 94.4103 127.966 94.4103 124.237C94.4103 119.762 91.5026 118.177 86.6049 115.568L83.9274 114.169C76.198 110.161 71.0707 105.127 71.0707 94.4998C71.0707 84.7117 77.1925 77.2537 86.7584 77.2537C93.5691 77.2537 98.4665 80.1438 101.986 87.6948L93.6451 94.2199C91.8084 90.2117 89.8194 88.6272 86.7586 88.6272C83.621 88.6272 81.6313 91.0509 81.6313 94.2199C81.6313 98.1352 83.621 99.7204 88.212 102.144L90.8901 103.542C99.9965 108.297 105.124 113.144 105.124 124.05C105.124 135.797 97.548 142.229 87.3705 142.229C77.4225 142.229 70.9944 136.449 67.8574 128.898" fill="black"/>
</svg>
