<svg width="170" height="169" viewBox="0 0 170 169" fill="none" xmlns="http://www.w3.org/2000/svg">
<path d="M84.0777 168.548C83.5013 168.548 82.9633 168.299 82.4638 167.863L77.353 162.948C76.5845 162.264 76.9688 162.015 77.1993 161.89C78.2368 161.33 78.429 161.206 79.5049 160.21C79.6202 160.086 79.7739 160.148 79.8892 160.273L83.8087 164.068C83.9624 164.192 84.1546 164.192 84.2698 164.068L99.6021 149.696C99.7558 149.571 99.8327 149.322 99.8327 149.011V120.329C99.8327 120.018 99.7558 119.769 99.6021 119.645L84.2698 105.334C84.1161 105.21 83.924 105.21 83.8087 105.334L68.4764 119.645C68.3227 119.769 68.2459 120.08 68.2459 120.329V149.011C68.2459 149.26 68.3227 149.571 68.4764 149.696L72.665 153.615C74.9321 155.482 76.3539 153.304 76.3539 151.127V122.818C76.3539 122.444 76.5461 122.071 76.815 122.071H78.7748C79.0054 122.071 79.2359 122.382 79.2359 122.818V151.127C79.2359 156.042 77.5836 158.904 74.7016 158.904C73.8178 158.904 73.1261 158.904 71.1663 157.348L67.1315 153.615C66.1324 152.682 65.5176 150.94 65.5176 149.073V120.391C65.5176 118.525 66.1324 116.783 67.1315 115.849L82.4638 101.477C83.4244 100.606 84.731 100.606 85.6916 101.477L101.024 115.849C102.023 116.783 102.638 118.525 102.638 120.391V149.073C102.638 150.94 102.023 152.682 101.024 153.615L85.6916 167.988C85.1921 168.361 84.6157 168.548 84.0777 168.548ZM88.8042 148.825C82.0795 148.825 80.6961 143.847 80.6961 139.616C80.6961 139.243 80.8883 138.87 81.1573 138.87H83.1555C83.386 138.87 83.5781 139.119 83.5781 139.492C83.8856 142.79 84.7694 144.407 88.8426 144.407C92.0705 144.407 93.4538 143.225 93.4538 140.425C93.4538 138.808 93.0696 137.625 88.0356 136.817C83.8471 136.132 81.2341 134.639 81.2341 129.226C81.2341 124.186 83.8471 121.2 88.2278 121.2C93.1464 121.2 95.5673 123.938 95.8747 129.91C95.8747 130.097 95.8363 130.284 95.7594 130.47C95.6826 130.595 95.5673 130.719 95.452 130.719H93.4538C93.2617 130.719 93.0696 130.47 93.0311 130.159C92.57 126.737 91.3788 125.617 88.2278 125.617C84.6925 125.617 84.2698 127.608 84.2698 129.102C84.2698 130.906 84.7694 131.466 89.5343 132.461C94.2608 133.457 96.4895 134.888 96.4895 140.239C96.4511 145.714 93.6844 148.825 88.8042 148.825Z" fill="#539E43"/>
<path d="M36.5054 56.3693C36.5054 55.2493 36.1211 54.1916 35.5063 53.6317L19.2134 38.4506C18.9444 38.2017 18.637 38.0773 18.3296 38.015H18.1759C17.8684 38.015 17.561 38.2017 17.292 38.4506L0.999095 53.6317C0.384267 54.1916 0 55.2493 0 56.3693L0.0384267 97.1841C0.0384267 97.744 0.23056 98.304 0.537974 98.5529C0.845388 98.8639 1.22966 98.8639 1.49864 98.5529L11.1822 89.5935C11.797 89.0336 12.1813 87.9759 12.1813 86.8559V67.7551C12.1813 66.6352 12.5655 65.5775 13.1804 65.0175L17.292 61.16C17.5994 60.8489 17.9453 60.7245 18.2911 60.7245C18.637 60.7245 18.9828 60.8489 19.2518 61.16L23.3635 65.0175C23.9783 65.5775 24.3626 66.6352 24.3626 67.7551V86.8559C24.3626 87.9759 24.7468 89.0336 25.3617 89.5935L35.0452 98.5529C35.3526 98.8639 35.7369 98.8639 36.0443 98.5529C36.3517 98.304 36.5438 97.744 36.5438 97.1841L36.5054 56.3693Z" fill="#333333"/>
<path d="M114.819 0.186653C114.512 -0.0622177 114.127 -0.0622177 113.858 0.186653C113.551 0.497742 113.359 0.995483 113.359 1.55544V41.9969C113.359 42.3702 113.244 42.7436 113.013 42.9924C112.782 43.1791 112.552 43.1791 112.321 42.9924L108.248 39.1971C107.633 38.6372 106.903 38.6372 106.288 39.1971L89.9954 54.4405C89.3806 55.0004 88.9963 56.0581 88.9963 57.1781V87.6025C88.9963 88.7224 89.3806 89.7801 89.9954 90.3401L106.288 105.583C106.903 106.143 107.633 106.143 108.248 105.583L124.541 90.3401C125.156 89.7801 125.54 88.7224 125.54 87.6025V11.7591C125.54 10.577 125.156 9.51931 124.541 8.95935L114.819 0.186653ZM113.32 77.5855C113.32 77.8965 113.244 78.1454 113.09 78.2699L107.518 83.4961C107.364 83.6206 107.172 83.6206 107.018 83.4961L101.447 78.2699C101.293 78.1454 101.216 77.8343 101.216 77.5855V67.1329C101.216 66.8218 101.293 66.5729 101.447 66.4485L107.018 61.2222C107.172 61.0978 107.364 61.0978 107.518 61.2222L113.09 66.4485C113.244 66.5729 113.32 66.884 113.32 67.1329V77.5855Z" fill="#333333"/>
<path d="M169.039 66.8838C169.654 66.3238 170 65.2661 170 64.1462V56.7423C170 55.6224 169.616 54.5647 169.039 54.0047L152.862 38.8236C152.247 38.2636 151.517 38.2636 150.902 38.8236L134.609 54.0669C133.994 54.6269 133.61 55.6846 133.61 56.8045V87.229C133.61 88.3489 133.994 89.4066 134.609 89.9665L150.787 104.899C151.401 105.459 152.132 105.459 152.708 104.899L162.507 96.0639C162.814 95.815 163.006 95.255 163.006 94.6951C163.006 94.1351 162.814 93.5752 162.507 93.3263L146.137 78.083C145.83 77.7719 145.637 77.2741 145.637 76.7142V67.1949C145.637 66.6349 145.83 66.0749 146.137 65.8261L151.248 61.0975C151.555 60.7864 151.939 60.7864 152.247 61.0975L157.358 65.8261C157.665 66.1372 157.857 66.6349 157.857 67.1949V74.661C157.857 75.2209 158.049 75.7809 158.357 76.0298C158.664 76.3409 159.048 76.3409 159.356 76.0298L169.039 66.8838Z" fill="#333333"/>
<path d="M151.632 65.4526C151.748 65.3282 151.901 65.3282 152.017 65.4526L155.129 68.3769C155.244 68.5013 155.321 68.688 155.321 68.9368V74.7853C155.321 75.0342 155.244 75.2208 155.129 75.3453L152.017 78.2695C151.901 78.3939 151.748 78.3939 151.632 78.2695L148.52 75.3453C148.404 75.2208 148.328 75.0342 148.328 74.7853V68.9368C148.328 68.688 148.404 68.5013 148.52 68.3769L151.632 65.4526Z" fill="#539E43"/>
<mask id="mask0_22_275" style="mask-type:alpha" maskUnits="userSpaceOnUse" x="44" y="38" width="37" height="68">
<path d="M63.7502 38.948C63.1354 38.3881 62.4053 38.3881 61.7904 38.948L45.6128 54.0669C44.9979 54.6269 44.6521 55.6846 44.6521 56.8045V87.1045C44.6521 88.2245 45.0364 89.2822 45.6128 89.8421L61.7904 104.961C62.4053 105.521 63.1354 105.521 63.7502 104.961L79.9279 89.8421C80.5427 89.2822 80.8885 88.2245 80.8885 87.1045V56.8045C80.8885 55.6846 80.5043 54.6269 79.9279 54.0669L63.7502 38.948Z" fill="white"/>
</mask>
<g mask="url(#mask0_22_275)">
<path d="M63.7502 38.948C63.1354 38.3881 62.4053 38.3881 61.7904 38.948L45.6128 54.0669C44.9979 54.6269 44.6521 55.6846 44.6521 56.8045V87.1045C44.6521 88.2245 45.0364 89.2822 45.6128 89.8421L61.7904 104.961C62.4053 105.521 63.1354 105.521 63.7502 104.961L79.9279 89.8421C80.5427 89.2822 80.8885 88.2245 80.8885 87.1045V56.8045C80.8885 55.6846 80.5043 54.6269 79.9279 54.0669L63.7502 38.948Z" fill="url(#paint0_linear_22_275)"/>
<path d="M79.9659 54.0655L63.7114 38.9466C63.5577 38.8222 63.3655 38.6978 63.2118 38.6356L44.9976 89.1563C45.1513 89.4674 45.3434 89.7163 45.5355 89.9029L61.79 105.022C62.2512 105.457 62.7891 105.582 63.2887 105.333L80.3886 54.6877C80.2733 54.4388 80.1196 54.2522 79.9659 54.0655Z" fill="url(#paint1_linear_22_275)"/>
<path fill-rule="evenodd" clip-rule="evenodd" d="M80.0047 89.8422C80.4659 89.4067 80.8117 88.6601 80.9654 87.8513L63.1354 38.5749C62.6743 38.4504 62.1747 38.5126 61.752 38.9482L45.6128 54.0048L63.0201 105.397C63.2507 105.334 63.5197 105.21 63.7502 105.023L80.0047 89.8422Z" fill="url(#paint2_linear_22_275)"/>
<path fill-rule="evenodd" clip-rule="evenodd" d="M80.0048 89.8419L63.7887 104.961C63.5581 105.147 63.3276 105.272 63.0586 105.334L63.366 106.267L81.3497 89.4064V89.0331L80.8886 87.7888C80.8118 88.6598 80.4659 89.4064 80.0048 89.8419Z" fill="url(#paint3_linear_22_275)"/>
<path fill-rule="evenodd" clip-rule="evenodd" d="M80.0048 89.8419L63.7887 104.961C63.5581 105.147 63.3276 105.272 63.0586 105.334L63.366 106.267L81.3497 89.4064V89.0331L80.8886 87.7888C80.8118 88.6598 80.4659 89.4064 80.0048 89.8419Z" fill="url(#paint4_linear_22_275)"/>
</g>
<defs>
<linearGradient id="paint0_linear_22_275" x1="69.3612" y1="50.2185" x2="37.6822" y2="80.9604" gradientUnits="userSpaceOnUse">
<stop stop-color="#41873F"/>
<stop offset="0.3288" stop-color="#418B3D"/>
<stop offset="0.6352" stop-color="#419637"/>
<stop offset="0.9319" stop-color="#3FA92D"/>
<stop offset="1" stop-color="#3FAE2A"/>
</linearGradient>
<linearGradient id="paint1_linear_22_275" x1="60.3136" y1="75.5016" x2="112.011" y2="58.1547" gradientUnits="userSpaceOnUse">
<stop offset="0.1376" stop-color="#41873F"/>
<stop offset="0.4032" stop-color="#54A044"/>
<stop offset="0.7136" stop-color="#66B848"/>
<stop offset="0.9081" stop-color="#6CC04A"/>
</linearGradient>
<linearGradient id="paint2_linear_22_275" x1="44.0612" y1="71.9556" x2="81.4954" y2="71.9556" gradientUnits="userSpaceOnUse">
<stop offset="0.0919165" stop-color="#6CC04A"/>
<stop offset="0.2864" stop-color="#66B848"/>
<stop offset="0.5968" stop-color="#54A044"/>
<stop offset="0.8624" stop-color="#41873F"/>
</linearGradient>
<linearGradient id="paint3_linear_22_275" x1="44.0613" y1="97.079" x2="81.4955" y2="97.079" gradientUnits="userSpaceOnUse">
<stop offset="0.0919165" stop-color="#6CC04A"/>
<stop offset="0.2864" stop-color="#66B848"/>
<stop offset="0.5968" stop-color="#54A044"/>
<stop offset="0.8624" stop-color="#41873F"/>
</linearGradient>
<linearGradient id="paint4_linear_22_275" x1="86.9492" y1="48.786" x2="63.4279" y2="124.908" gradientUnits="userSpaceOnUse">
<stop stop-color="#41873F"/>
<stop offset="0.3288" stop-color="#418B3D"/>
<stop offset="0.6352" stop-color="#419637"/>
<stop offset="0.9319" stop-color="#3FA92D"/>
<stop offset="1" stop-color="#3FAE2A"/>
</linearGradient>
</defs>
</svg>
