<svg width="145" height="137" viewBox="0 0 145 137" fill="none" xmlns="http://www.w3.org/2000/svg">
<path d="M71.9789 8.99058C39.807 8.99058 41.8416 22.134 41.8416 22.134V35.7912H72.4366V40.0725H29.657C29.657 40.0725 9.0625 37.675 9.0625 68.5214C9.0625 99.3678 27.2464 98.1134 27.2464 98.1134H37.7453V83.7241C37.7453 83.7241 37.1562 66.5434 55.4172 66.5434H86.0575C86.0575 66.5434 103.149 66.8003 103.149 50.9083V24.8312C103.149 24.8312 105.741 8.93921 72.1466 8.93921L71.9789 8.99058ZM55.0683 18.1396C56.156 18.1137 57.2274 18.3931 58.147 18.9425C59.0666 19.4919 59.7931 20.2866 60.2346 21.2262C60.6762 22.1657 60.8129 23.2079 60.6276 24.2208C60.4422 25.2338 59.9431 26.1721 59.1933 26.917C58.4435 27.662 57.4768 28.1801 56.4153 28.4059C55.3538 28.6317 54.2454 28.555 53.23 28.1856C52.2147 27.8161 51.3381 27.1705 50.7112 26.3303C50.0842 25.4901 49.735 24.4932 49.7078 23.4655V23.3799C49.7078 22.6973 49.8501 22.0215 50.1265 21.3909C50.403 20.7603 50.8082 20.1873 51.319 19.7047C51.8298 19.2221 52.4362 18.8393 53.1036 18.5781C53.771 18.3169 54.4864 18.1824 55.2088 18.1824L55.0683 18.1396Z" fill="url(#paint0_linear_24_100)"/>
<path d="M72.8851 128.052C105.057 128.052 103.022 114.866 103.022 114.866V101.252H72.432V96.9704H115.343C115.343 96.9704 135.937 99.1453 135.937 68.4787C135.937 37.8121 117.754 38.8867 117.754 38.8867H107.119V53.0876C107.119 53.0876 107.708 70.2683 89.4468 70.2683H58.7929C58.7929 70.2683 41.6874 70.0242 41.6874 85.9162V112.169C41.6874 112.169 39.0956 128.061 72.6902 128.061H72.8715L72.8851 128.052ZM89.7957 118.86C88.708 118.886 87.6366 118.607 86.717 118.058C85.7974 117.508 85.0709 116.713 84.6294 115.774C84.1878 114.834 84.0511 113.792 84.2364 112.779C84.4218 111.766 84.9209 110.828 85.6707 110.083C86.4205 109.338 87.3872 108.82 88.4487 108.594C89.5102 108.368 90.6186 108.445 91.634 108.814C92.6493 109.184 93.5259 109.83 94.1528 110.67C94.7798 111.51 95.1289 112.507 95.1562 113.535V113.663C95.1562 115.041 94.5766 116.363 93.545 117.338C92.5134 118.313 91.1142 118.86 89.6552 118.86H89.7912H89.7957Z" fill="url(#paint1_linear_24_100)"/>
<defs>
<linearGradient id="paint0_linear_24_100" x1="21.6012" y1="20.648" x2="78.4005" y2="80.6279" gradientUnits="userSpaceOnUse">
<stop stop-color="#387EB8"/>
<stop offset="1" stop-color="#366994"/>
</linearGradient>
<linearGradient id="paint1_linear_24_100" x1="57.2183" y1="57.6196" x2="122.604" y2="118.036" gradientUnits="userSpaceOnUse">
<stop stop-color="#FFE052"/>
<stop offset="1" stop-color="#FFC331"/>
</linearGradient>
</defs>
</svg>
