<svg width="114" height="120" viewBox="0 0 114 120" fill="none" xmlns="http://www.w3.org/2000/svg">
<path d="M0 59.7845C0 69.864 8.40673 79.2736 21.6606 84.5774C19.014 100.177 21.1863 112.751 28.4422 117.65C35.9005 122.686 47.0115 119.2 57.5574 108.407C67.8372 118.764 78.2267 122.84 85.4759 117.927C92.9269 112.877 95.1933 99.4506 92.4734 83.3638C106.278 78.0202 114 69.9967 114 59.7845C114 49.9387 105.578 41.4207 92.5025 36.1508C95.4306 19.3992 92.9496 7.13088 85.3933 2.02922C78.1083 -2.8891 67.5982 1.39771 57.1672 12.0259C46.3155 0.744919 35.909 -2.69931 28.3601 2.41722C21.0822 7.34952 19.0054 20.1514 21.6606 36.0401C8.85426 41.2677 0 49.978 0 59.7845Z" fill="white"/>
<path d="M89.7331 41.3841C88.6829 40.9608 87.5946 40.5604 86.474 40.1816C86.6582 39.3016 86.8272 38.433 86.9775 37.5791C89.4446 23.5584 87.8315 12.2632 82.3234 8.54439C77.0418 4.9785 68.4042 8.69651 59.6806 17.585C58.8417 18.4397 58.0005 19.3446 57.1597 20.293C56.5994 19.6655 56.04 19.0591 55.4821 18.4791C46.3395 8.97501 37.1755 4.96985 31.6728 8.69946C26.3962 12.2757 24.8336 22.8942 27.0544 36.1818C27.2688 37.4652 27.5195 38.7758 27.8029 40.1084C26.506 40.5395 25.2539 40.999 24.0558 41.4879C13.3371 45.8631 6.4917 52.7202 6.4917 59.8328C6.4917 67.1787 13.8403 74.5468 25.0046 79.0144C25.8857 79.367 26.7999 79.7003 27.742 80.0168C27.4362 81.4581 27.1702 82.8704 26.9469 84.2479C24.8295 97.3048 26.4831 107.673 31.7456 111.226C37.1812 114.896 46.3038 111.124 55.1869 102.033C55.889 101.314 56.5936 100.552 57.2995 99.7534C58.2144 100.785 59.1279 101.761 60.0365 102.677C68.6408 111.346 77.139 114.846 82.3966 111.283C87.8269 107.602 89.5916 96.4647 87.3005 82.9143C87.1255 81.8794 86.9218 80.8221 86.6932 79.7461C87.3338 79.5244 87.9627 79.2954 88.576 79.0574C100.182 74.5552 107.734 67.2768 107.734 59.8328C107.734 52.6944 100.668 45.7912 89.7331 41.3841Z" fill="#53C1DE"/>
<path d="M87.2161 74.2509C86.6625 74.4655 86.0945 74.6729 85.5156 74.8739C84.2344 70.1248 82.5051 65.0749 80.3889 59.8574C82.4083 54.7642 84.0707 49.7788 85.3162 45.0605C86.3518 45.4113 87.357 45.7814 88.3257 46.1719C97.6944 49.948 103.409 55.5309 103.409 59.8327C103.409 64.4149 97.2374 70.3633 87.2161 74.2509ZM83.0579 83.8976C84.0711 89.8895 84.2158 95.3067 83.5447 99.5417C82.9417 103.347 81.7291 105.884 80.2297 106.9C77.0391 109.062 70.216 106.252 62.8575 98.8382C62.0139 97.9884 61.1643 97.0809 60.3119 96.1205C63.1646 92.4677 66.0157 88.2212 68.7983 83.505C73.6926 82.9965 78.3166 82.1652 82.5099 81.0303C82.7164 82.0057 82.8999 82.9623 83.0579 83.8976ZM41.0078 106.527C37.8905 107.816 35.4078 107.852 33.907 106.839C30.7135 104.683 29.3859 96.3585 31.1968 85.1923C31.4042 83.9135 31.6511 82.5999 31.9357 81.2571C36.083 82.3309 40.6731 83.1035 45.5792 83.5691C48.3805 88.184 51.314 92.4259 54.2702 96.1401C53.6243 96.8702 52.9809 97.5652 52.3412 98.2201C48.4132 102.24 44.4768 105.092 41.0078 106.527ZM26.4038 74.2228C21.4671 72.2474 17.3902 69.6799 14.5957 66.8782C12.0847 64.3605 10.8169 61.8609 10.8169 59.8327C10.8169 55.5165 16.3131 50.0113 25.4798 46.2694C26.5921 45.8154 27.7564 45.3875 28.9647 44.9856C30.2316 49.8104 31.8935 54.8549 33.8991 59.9559C31.8676 65.1327 30.1821 70.2576 28.9027 75.1389C28.0413 74.8491 27.2068 74.544 26.4038 74.2228ZM31.2992 35.2093C29.3965 23.8248 30.6602 15.2368 33.84 13.0818C37.227 10.7861 44.7167 14.0593 52.6106 22.2657C53.1152 22.7902 53.6218 23.3392 54.1298 23.9071C51.1882 27.6051 48.2816 31.8151 45.5051 36.4028C40.7436 36.9195 36.1857 37.7496 31.9951 38.861C31.7317 37.6202 31.4983 36.4011 31.2992 35.2093ZM74.9705 47.8345C73.9687 45.8086 72.9402 43.8306 71.8918 41.9066C75.122 42.3847 78.217 43.0194 81.1234 43.796C80.2508 47.0701 79.1633 50.4934 77.883 54.0027C76.9647 51.9614 75.9934 49.9032 74.9705 47.8345ZM57.1614 27.526C59.1564 30.0563 61.1542 32.8815 63.1192 35.9467C61.139 35.8372 59.1344 35.7802 57.1131 35.7802C55.111 35.7802 53.1211 35.8359 51.1532 35.9435C53.1202 32.9068 55.1353 30.0855 57.1614 27.526ZM39.2383 47.8695C38.2376 49.9011 37.2843 51.9481 36.3804 53.9989C35.1209 50.5018 34.0434 47.0629 33.1633 43.7424C36.0518 42.9856 39.1322 42.3668 42.3419 41.8978C41.2787 43.8395 40.2417 45.832 39.2383 47.8691V47.8695ZM42.4343 78.1288C39.1181 77.6957 35.9915 77.1087 33.1036 76.3728C33.9978 72.993 35.0991 69.4807 36.3852 65.9083C37.2915 67.9576 38.2486 70.0054 39.2554 72.0414H39.2556C40.2812 74.1157 41.3437 76.1475 42.4343 78.1288ZM57.2811 92.4964C55.2312 89.907 53.1866 87.0426 51.1896 83.9616C53.1282 84.0506 55.1045 84.0962 57.1131 84.0962C59.1767 84.0962 61.2167 84.0417 63.2246 83.9371C61.2531 87.0736 59.2625 89.9424 57.2811 92.4964ZM77.9243 65.7262C79.2775 69.3372 80.4182 72.8312 81.324 76.1534C78.3885 76.9374 75.2192 77.5689 71.8799 78.0381C72.9309 76.0882 73.9683 74.0762 74.9878 72.0066C76.0191 69.9128 76.9984 67.8158 77.9243 65.7262ZM71.2414 69.4769C69.6588 72.6896 68.034 75.7565 66.3846 78.6515C63.3803 78.903 60.2765 79.0325 57.1131 79.0325C53.9625 79.0325 50.8979 78.9179 47.9468 78.6936C46.2308 75.7607 44.5707 72.6848 42.9982 69.5045H42.9986C41.4302 66.333 39.9867 63.1346 38.6788 59.9542C39.9864 56.7664 41.4261 53.5645 42.9854 50.3986L42.9851 50.3993C44.5486 47.225 46.1941 44.164 47.8942 41.2494C50.9051 40.9829 53.9926 40.8439 57.113 40.8439H57.1131C60.2475 40.8439 63.339 40.984 66.3491 41.2528C68.0232 44.146 69.6575 47.1971 71.2272 50.3718C72.8146 53.5822 74.2729 56.7628 75.5917 59.8823C74.2769 63.0553 72.8219 66.268 71.2414 69.4769ZM80.1634 12.9312C83.5537 15.2202 84.8721 24.4517 82.742 36.5571C82.6062 37.3295 82.4532 38.1162 82.287 38.9136C78.0867 37.7789 73.5256 36.9345 68.7502 36.41C65.9683 31.7719 63.0855 27.5553 60.1918 23.9048C60.9698 23.0286 61.7467 22.1931 62.5203 21.4046C69.9947 13.7891 76.9805 10.7823 80.1634 12.9312Z" fill="white"/>
<path d="M57.1128 49.2482C62.1057 49.2482 66.1534 53.9869 66.1534 59.8327C66.1534 65.6783 62.1057 70.4173 57.1128 70.4173C52.12 70.4173 48.0723 65.6783 48.0723 59.8327C48.0723 53.9869 52.12 49.2482 57.1128 49.2482Z" fill="#53C1DE"/>
</svg>
