<svg width="125" height="138" viewBox="0 0 125 138" fill="none" xmlns="http://www.w3.org/2000/svg">
<g clip-path="url(#clip0_24_89)">
<path d="M124.963 0H0.0366211C0.0163958 0 0 0.018101 0 0.0404297V137.96C0 137.982 0.0163958 138 0.0366211 138H124.963C124.984 138 125 137.982 125 137.96V0.0404297C125 0.018101 124.984 0 124.963 0Z" fill="#CC6699"/>
<path d="M62.9883 23.7187C39.5508 32.6132 24.4141 50.6718 25.8789 61.4531C27.3438 72.2343 41.9922 80.8593 48.584 86.5195C40.0391 91.3711 29.2969 98.6484 29.541 108.082C30.0293 121.019 42.7246 116.977 48.0957 113.203C53.4668 109.43 58.8379 98.9179 55.4199 87.8672C62.9883 85.7109 69.5801 88.4062 71.5332 90.0234C79.1016 95.9531 75.1953 102.691 72.5098 103.769C69.8242 104.848 71.5332 105.387 73.2422 104.848C74.9512 104.309 78.6133 101.613 78.6133 97.0312C78.6133 85.4414 67.3828 80.0507 53.4668 84.0937C45.4102 74.6601 34.4238 70.3476 34.9121 60.1054C35.1563 56.332 36.377 46.6289 58.1055 34.5C79.834 22.3711 95.2148 27.2226 93.2617 38.2734C90.332 54.9843 63.9648 66.3047 54.6875 56.6015C54.1992 55.5234 52.4902 54.7148 53.4668 57.6797C58.3496 71.1562 97.9004 64.957 99.6094 36.3867C100.098 21.2929 80.3223 17.25 62.9883 23.7187ZM41.9922 109.969C35.8887 112.125 36.1328 107.812 36.377 106.195C37.1094 101.613 40.5273 95.9531 50.7813 90.2929C53.7109 100.535 47.1191 108.352 41.9922 109.969Z" fill="white"/>
</g>
<defs>
<clipPath id="clip0_24_89">
<rect width="125" height="138" fill="white"/>
</clipPath>
</defs>
</svg>
