<svg width="138" height="89" viewBox="0 0 138 89" fill="none" xmlns="http://www.w3.org/2000/svg">
<path fill-rule="evenodd" clip-rule="evenodd" d="M34.5 29.8C39.0993 10.2008 50.6007 0.400024 69 0.400024C96.6 0.400024 100.05 22.45 113.85 26.125C123.051 28.5758 131.1 24.9008 138 15.1C133.401 34.6993 121.899 44.5 103.5 44.5C75.9 44.5 72.45 22.45 58.65 18.775C49.4493 16.3243 41.4 19.9993 34.5 29.8ZM0 73.9C4.59928 54.3008 16.1007 44.5 34.5 44.5C62.1 44.5 65.55 66.55 79.35 70.225C88.5507 72.6758 96.6 69.0008 103.5 59.2C98.9007 78.7993 87.3993 88.6 69 88.6C41.4 88.6 37.95 66.55 24.15 62.875C14.9493 60.4243 6.9 64.0993 0 73.9Z" fill="url(#paint0_linear_24_52)"/>
<defs>
<linearGradient id="paint0_linear_24_52" x1="3.42924e-06" y1="-77.9992" x2="151.196" y2="158.565" gradientUnits="userSpaceOnUse">
<stop stop-color="#2383AE"/>
<stop offset="1" stop-color="#6DD7B9"/>
</linearGradient>
</defs>
</svg>
