<svg width="133" height="168" viewBox="0 0 133 168" fill="none" xmlns="http://www.w3.org/2000/svg">
<path d="M118.703 0H14.297C6.401 0 0 8.0547 0 17.9907V149.37C0 159.306 6.401 167.361 14.297 167.361H118.703C126.599 167.361 133 159.306 133 149.37V17.9907C133 8.0547 126.599 0 118.703 0Z" fill="#21759A"/>
<path fill-rule="evenodd" clip-rule="evenodd" d="M68.2872 136.587C64.5249 136.587 63.3961 136.824 59.4456 135.877L54.7427 134.693C55.307 131.143 63.9605 101.079 65.4654 94.6878C65.8417 93.5042 66.9704 89.7167 67.1585 88.7698H67.3466C67.5348 89.7167 69.4159 95.8714 69.7922 97.2917C69.9803 98.2386 70.3565 99.1855 70.5447 100.132C73.3664 108.891 76.0001 119.307 78.6338 128.065C79.1981 129.959 79.7625 132.089 80.3268 133.747C79.3862 133.983 78.8219 134.457 77.6932 134.693C74.4951 135.64 71.8615 136.587 68.2872 136.587ZM64.5249 24.6188H68.6635C71.6734 24.8556 74.8714 25.329 78.2575 26.5126C82.5843 27.9329 82.9605 28.4063 86.5348 30.3001L90.109 32.6673C95.7526 36.9282 101.208 42.8462 104.97 49.7111C106.099 51.8416 108.357 56.3392 109.109 58.7064C112.495 69.3588 113.436 73.1463 113.436 85.6925C113.436 94.6878 110.802 105.814 107.04 113.389C101.584 124.988 92.5546 134.93 82.3961 139.428C77.6932 141.322 73.1783 142.505 68.4753 142.742H64.3367C59.0694 142.505 53.8021 140.848 48.5348 138.244L44.5843 135.877C42.5149 134.22 42.1387 134.22 39.3169 131.853C30.4753 124.278 23.7031 111.732 21.0694 98.2386C19.5645 91.137 19.5645 88.5331 19.5645 81.6682C19.5645 76.9338 20.3169 72.6729 21.0694 68.8854C22.01 64.151 23.8912 58.233 25.9605 53.9721C31.4159 42.3728 40.4456 32.4306 50.6041 27.9329C55.307 26.0392 59.8219 24.8556 64.5249 24.6188ZM24.4555 85.9292C24.4555 77.8807 24.8318 72.1995 27.2773 64.3877C27.4654 63.6776 27.6536 62.9674 28.0298 62.494L38.0001 96.5816C39.505 102.5 41.3862 108.181 42.8912 113.862C43.8318 116.703 44.5843 119.543 45.5248 122.384L47.9704 131.143C45.1486 130.432 37.4357 122.621 35.3664 119.307C34.2377 117.413 33.4852 116.939 31.9803 113.862C27.8417 106.287 24.4555 96.1081 24.4555 85.9292ZM103.654 58.9432L104.218 59.89C106.663 66.0447 108.545 74.5666 108.545 81.4315C108.545 89.2433 108.357 92.794 106.475 100.606C105.723 102.736 105.347 104.63 104.406 106.76C102.149 112.678 99.5149 116.939 95.7526 121.674L91.9902 125.698C90.6734 127.118 89.3565 128.302 87.8516 129.249C88.2278 126.882 99.3268 86.8761 100.832 82.1417C103.089 74.8034 103.842 70.7791 103.842 62.0205C103.842 60.6002 103.654 60.1268 103.654 58.9432ZM87.2872 53.2619C87.2872 63.2041 94.812 68.1752 94.812 79.7745C94.812 84.9823 94.6239 85.6925 93.4951 90.9003C92.7427 93.7409 92.1783 96.3448 91.4258 98.9488L88.6041 111.021C88.4159 112.205 87.8516 114.099 87.6635 115.282C87.0991 114.809 85.9704 109.364 85.5942 108.418L74.307 66.0447C73.9308 64.8611 72.614 59.89 72.4258 58.9432C73.5546 58.9432 75.4357 58.7064 76.3763 58.4697C78.2575 58.233 78.6338 57.9963 78.6338 55.8658C78.6338 54.9189 78.0694 53.9721 77.3169 53.9721C74.1189 53.9721 71.4852 54.4455 68.0991 54.4455H63.5843C60.01 54.4455 57.1882 53.9721 53.8021 53.9721C53.4258 53.9721 52.6734 54.9189 52.6734 56.3392C52.6734 58.233 53.614 58.233 54.9308 58.4697C55.8714 58.4697 58.1288 58.4697 58.6932 59.1799L64.5249 79.0643C65.0892 81.1948 65.2773 80.9581 64.713 83.0885L58.3169 107.471C57.9407 108.891 56.2476 114.809 56.2476 115.756C55.6833 115.282 55.6833 115.046 55.4951 114.336L54.1783 108.891C53.4258 106.524 52.8615 104.393 52.2971 101.789C50.9803 97.055 49.6635 92.3206 48.3466 87.5862C47.7823 84.9823 41.1981 61.5471 40.8219 58.9432C41.7625 58.9432 45.713 58.7064 46.4654 57.9963C47.406 56.8127 47.406 55.1556 46.4654 54.4455C45.713 53.4986 43.4555 53.9721 42.5149 54.2088L31.4159 54.4455C33.2971 50.8947 34.9902 48.2908 37.2476 45.4502C37.812 44.74 38.3763 44.2666 38.9407 43.5564C40.0694 42.1361 43.2674 39.2954 44.7724 38.3486C46.0892 37.4017 47.406 36.4548 48.911 35.5079C61.8912 28.1696 77.505 29.1165 89.3565 39.2954C90.8615 40.479 93.8714 42.8462 94.6239 44.5033C92.1783 44.5033 90.8615 45.4502 89.5447 47.1072C88.4159 48.2908 87.2872 50.658 87.2872 53.2619Z" fill="white"/>
<path fill-rule="evenodd" clip-rule="evenodd" d="M113.436 85.6924C113.436 94.6878 110.802 105.814 107.039 113.389C101.584 124.988 92.5543 134.93 82.3959 139.428C77.6929 141.322 73.1781 142.505 68.4751 142.742H64.3365C59.0692 142.505 53.8018 140.848 48.5345 138.244L44.584 135.877C42.5147 134.22 42.1385 134.22 39.3167 131.853C38.9405 131.616 38.5642 131.143 38.188 130.906L67.1583 167.361H118.703L133 149.37V83.7987L100.267 42.6095C101.96 44.74 103.653 47.3439 104.97 49.7111C106.099 51.8416 108.356 56.3392 109.109 58.7064C112.495 69.3588 113.436 73.383 113.436 85.6924Z" fill="#1B5F7D"/>
<path fill-rule="evenodd" clip-rule="evenodd" d="M78.6338 128.065C76.0001 119.307 73.3664 108.891 70.5447 100.132L69.7922 97.2917C69.4159 95.8714 67.5348 89.7167 67.5348 88.7698H66.9704C66.9704 89.7167 65.8417 93.5042 65.4654 94.6878C63.9605 101.079 55.307 131.143 54.7427 134.693L59.4456 135.877C63.3961 136.824 64.5249 136.587 68.2872 136.587C71.8615 136.587 74.4952 135.64 77.6932 134.693C78.8219 134.457 79.3862 133.983 80.3268 133.746C79.7625 132.089 79.1981 129.959 78.6338 128.065Z" fill="#1B5F7D"/>
<path fill-rule="evenodd" clip-rule="evenodd" d="M42.891 113.862C41.386 108.181 39.5048 102.5 37.9999 96.5816L28.0296 62.494C27.6533 62.9674 27.4652 63.6776 27.2771 64.3877C24.8316 72.1995 24.4553 77.8807 24.4553 85.9292C24.4553 96.1081 27.8415 106.287 31.9801 113.862C33.485 116.939 34.2375 117.413 35.3662 119.307C37.4355 122.621 45.1484 130.432 47.9702 131.143L45.3365 122.384C44.584 119.543 43.8316 116.703 42.891 113.862Z" fill="#1B5F7D"/>
<path fill-rule="evenodd" clip-rule="evenodd" d="M48.3465 87.5862L52.297 101.789L54.1781 108.891L55.495 114.336C55.6831 115.046 55.6831 115.282 56.2475 115.756C56.2475 114.809 57.9405 108.891 58.3168 107.471L64.7128 83.0885C65.2772 80.9581 65.089 81.1948 64.5247 79.0643L58.693 59.1799C58.1286 58.4697 55.8712 58.4697 54.9306 58.4697C53.6138 58.233 52.6732 58.233 52.6732 56.3392C52.6732 54.9189 53.4257 53.972 53.8019 53.972C57.188 53.972 60.0098 54.4455 63.5841 54.4455H68.0989C71.4851 54.4455 74.1187 53.972 77.3168 53.972C78.0692 53.972 78.6336 54.9189 78.6336 55.8658C78.6336 57.9963 78.2574 58.233 76.3762 58.4697C75.4356 58.7064 73.5544 58.9432 72.4257 58.9432C72.6138 59.89 73.9306 64.8611 74.3069 66.0447L85.594 108.418C85.9702 109.364 87.0989 114.809 87.6633 115.282C87.8514 114.099 88.4158 112.205 88.6039 111.021L91.4257 98.9487L93.495 90.9003C94.6237 85.6925 94.8118 84.9823 94.8118 79.7745C94.8118 68.1752 87.2871 63.2041 87.2871 53.2619C87.2871 50.658 88.4158 48.2908 89.5445 47.1072C90.8613 45.4501 92.1781 44.5033 94.6237 44.5033C93.8712 42.8462 90.8613 40.479 89.3564 39.2954C77.5049 29.1165 61.891 28.1696 48.9108 35.5079C47.4059 36.4548 46.089 37.4017 44.7722 38.3486C43.2673 39.2954 40.0692 42.1361 38.9405 43.5564C38.3762 44.2665 37.8118 44.74 37.2475 45.4501C34.99 48.2908 33.297 50.8947 31.4158 54.4455L42.5148 54.2088C43.4554 53.972 45.7128 53.4986 46.4653 54.4455C47.4059 55.1556 47.4059 56.8127 46.4653 57.9963C45.7128 58.7064 41.7623 58.9432 40.8217 58.9432C41.1979 61.5471 47.7821 84.9823 48.3465 87.5862Z" fill="#1B5F7D"/>
<path fill-rule="evenodd" clip-rule="evenodd" d="M100.832 82.1417C99.3268 86.8761 88.2278 126.882 87.8516 129.249C89.3565 128.302 90.6733 127.118 91.9902 125.698L95.7526 121.674C99.5149 116.939 102.149 112.679 104.406 106.761C105.347 104.63 105.723 102.736 106.475 100.606C108.357 92.7941 108.545 89.2433 108.545 81.4315C108.545 74.5667 106.663 66.0448 104.218 59.8901L103.654 58.9432C103.654 60.1268 103.842 60.6002 103.842 62.0205C103.842 70.7792 103.089 74.8034 100.832 82.1417Z" fill="#1B5F7D"/>
</svg>
