<svg width="75" height="71" viewBox="0 0 75 71" fill="none" xmlns="http://www.w3.org/2000/svg">
<g clip-path="url(#clip0_15_145)">
<path d="M75 36.3891C75 44.3176 72.6156 51.4486 67.8467 57.7819C63.0778 64.1153 56.9173 68.4981 49.3652 70.9303C48.4863 71.0883 47.8434 70.9777 47.4365 70.5986C47.0296 70.2196 46.8262 69.7458 46.8262 69.1772V59.1797C46.8262 56.1157 45.9798 53.8729 44.2871 52.4515C46.1426 52.262 47.8109 51.9777 49.292 51.5986C50.7731 51.2196 52.3031 50.6036 53.8818 49.7507C55.4606 48.8979 56.779 47.8476 57.8369 46.5998C58.8949 45.3521 59.7575 43.6938 60.4248 41.6248C61.0921 39.5558 61.4258 37.1788 61.4258 34.4938C61.4258 30.6717 60.14 27.4182 57.5684 24.7332C58.7728 21.8587 58.6426 18.6368 57.1777 15.0674C56.2663 14.7831 54.9479 14.9568 53.2227 15.5886C51.4974 16.2203 50 16.9152 48.7305 17.6734L46.875 18.8105C43.8477 17.9892 40.7227 17.5786 37.5 17.5786C34.2773 17.5786 31.1523 17.9892 28.125 18.8105C27.6042 18.463 26.9124 18.0366 26.0498 17.5312C25.1872 17.0258 23.8281 16.4177 21.9727 15.707C20.1172 14.9963 18.7174 14.7831 17.7734 15.0674C16.3411 18.6368 16.2272 21.8587 17.4316 24.7332C14.86 27.4182 13.5742 30.6717 13.5742 34.4938C13.5742 37.1788 13.9079 39.5479 14.5752 41.6011C15.2425 43.6543 16.097 45.3126 17.1387 46.5762C18.1803 47.8397 19.4906 48.8979 21.0693 49.7507C22.6481 50.6036 24.1781 51.2196 25.6592 51.5986C27.1403 51.9777 28.8086 52.262 30.6641 52.4515C29.362 53.5886 28.5645 55.2154 28.2715 57.3318C27.5879 57.6477 26.8555 57.8846 26.0742 58.0425C25.293 58.2005 24.3652 58.2794 23.291 58.2794C22.2168 58.2794 21.1507 57.9399 20.0928 57.2607C19.0348 56.5816 18.1315 55.5945 17.3828 54.2994C16.7643 53.2886 15.9749 52.4673 15.0146 51.8355C14.0544 51.2038 13.2487 50.8247 12.5977 50.6984L11.6211 50.5562C10.9375 50.5562 10.4655 50.6273 10.2051 50.7694C9.94466 50.9116 9.86328 51.0932 9.96094 51.3143C10.0586 51.5354 10.2051 51.7565 10.4004 51.9777C10.5957 52.1988 10.8073 52.3883 11.0352 52.5462L11.377 52.7831C12.0931 53.099 12.8011 53.6992 13.501 54.5837C14.2008 55.4681 14.7135 56.2736 15.0391 57.0001L15.5273 58.0899C15.9505 59.2902 16.6667 60.2616 17.6758 61.0039C18.6849 61.7462 19.7754 62.22 20.9473 62.4253C22.1191 62.6306 23.2503 62.7412 24.3408 62.757C25.4313 62.7728 26.3346 62.7175 27.0508 62.5911L28.1738 62.4016C28.1738 63.602 28.182 65.0076 28.1982 66.6186C28.2145 68.2296 28.2227 69.0824 28.2227 69.1772C28.2227 69.7458 28.0111 70.2196 27.5879 70.5986C27.1647 70.9777 26.5137 71.0883 25.6348 70.9303C18.0827 68.4981 11.9222 64.1153 7.15332 57.7819C2.38444 51.4486 0 44.3176 0 36.3891C0 29.7873 1.67643 23.6987 5.0293 18.1235C8.38216 12.5482 12.9313 8.13385 18.6768 4.88031C24.4222 1.62677 30.6966 0 37.5 0C44.3034 0 50.5778 1.62677 56.3232 4.88031C62.0687 8.13385 66.6178 12.5482 69.9707 18.1235C73.3236 23.6987 75 29.7873 75 36.3891Z" fill="#555555"/>
</g>
<defs>
<clipPath id="clip0_15_145">
<rect width="75" height="71" fill="white"/>
</clipPath>
</defs>
</svg>
