<svg width="75" height="71" viewBox="0 0 75 71" fill="none" xmlns="http://www.w3.org/2000/svg">
<g clip-path="url(#clip0_14_82)">
<path fill-rule="evenodd" clip-rule="evenodd" d="M15.7739 44.7413C15.7739 48.8548 12.262 52.1794 7.91679 52.1794C3.57155 52.1794 0.0596466 48.8548 0.0596466 44.7413C0.0596466 40.6278 3.57155 37.3032 7.91679 37.3032H15.7739V44.7413ZM19.7023 44.7413C19.7023 40.6278 23.2142 37.3032 27.5594 37.3032C31.9046 37.3032 35.4165 40.6278 35.4165 44.7413V63.3366C35.4165 67.45 31.9046 70.7747 27.5594 70.7747C23.2142 70.7747 19.7023 67.45 19.7023 63.3366V44.7413Z" fill="#E01E5A"/>
<path fill-rule="evenodd" clip-rule="evenodd" d="M27.5595 14.8762C23.2143 14.8762 19.7024 11.5516 19.7024 7.4381C19.7024 3.3246 23.2143 0 27.5595 0C31.9048 0 35.4167 3.3246 35.4167 7.4381V14.8762H27.5595ZM27.5595 18.6517C31.9048 18.6517 35.4167 21.9763 35.4167 26.0898C35.4167 30.2033 31.9048 33.5279 27.5595 33.5279H7.85714C3.5119 33.5279 0 30.2033 0 26.0898C0 21.9763 3.5119 18.6517 7.85714 18.6517H27.5595Z" fill="#36C5F0"/>
<path fill-rule="evenodd" clip-rule="evenodd" d="M59.0476 26.0897C59.0476 21.9762 62.5595 18.6516 66.9047 18.6516C71.2499 18.6516 74.7618 21.9762 74.7618 26.0897C74.7618 30.2032 71.2499 33.5278 66.9047 33.5278H59.0476V26.0897ZM55.1189 26.0897C55.1189 30.2032 51.607 33.5278 47.2618 33.5278C42.9166 33.5278 39.4046 30.2032 39.4046 26.0897V7.4381C39.4046 3.3246 42.9166 0 47.2618 0C51.607 0 55.1189 3.3246 55.1189 7.4381V26.0897Z" fill="#2EB67D"/>
<path fill-rule="evenodd" clip-rule="evenodd" d="M47.262 55.8984C51.6072 55.8984 55.1191 59.223 55.1191 63.3365C55.1191 67.4499 51.6072 70.7745 47.262 70.7745C42.9167 70.7745 39.4048 67.4499 39.4048 63.3365V55.8984H47.262ZM47.262 52.1795C42.9167 52.1795 39.4048 48.8549 39.4048 44.7414C39.4048 40.6279 42.9167 37.3033 47.262 37.3033H66.9643C71.3096 37.3033 74.8215 40.6279 74.8215 44.7414C74.8215 48.8549 71.3096 52.1795 66.9643 52.1795H47.262Z" fill="#ECB22E"/>
</g>
<defs>
<clipPath id="clip0_14_82">
<rect width="75" height="71" fill="white"/>
</clipPath>
</defs>
</svg>
