<svg width="75" height="71" viewBox="0 0 75 71" fill="none" xmlns="http://www.w3.org/2000/svg">
<g clip-path="url(#clip0_14_88)">
<path d="M37.5 71C58.2107 71 75 55.1061 75 35.5C75 15.8939 58.2107 0 37.5 0C16.7893 0 0 15.8939 0 35.5C0 55.1061 16.7893 71 37.5 71Z" fill="#0052CC"/>
<path d="M30.3003 32.0748C29.9634 31.6588 29.3335 31.5756 28.8867 31.8946C28.7549 31.9847 28.6524 32.1095 28.5864 32.2482L19.9219 48.6669C19.6655 49.1523 19.8706 49.7416 20.3833 49.9843C20.5298 50.0536 20.6836 50.0883 20.8447 50.0883H32.9224C33.3179 50.0952 33.6841 49.8872 33.8525 49.5475C36.4526 44.4444 34.8779 36.6995 30.3003 32.0748ZM36.665 17.1399C32.2705 23.5465 31.7578 31.6658 35.332 38.5161L41.1548 49.5406C41.3306 49.8734 41.6895 50.0814 42.085 50.0814H54.1626C54.7339 50.0814 55.2026 49.6446 55.2026 49.0968C55.2026 48.9443 55.166 48.7917 55.0928 48.66C55.0928 48.66 38.8477 17.8956 38.4375 17.126C38.2031 16.6684 37.6172 16.4743 37.1265 16.6961C36.9214 16.8001 36.7603 16.9527 36.665 17.1399Z" fill="white"/>
</g>
<defs>
<clipPath id="clip0_14_88">
<rect width="75" height="71" fill="white"/>
</clipPath>
</defs>
</svg>
