<svg width="75" height="71" viewBox="0 0 75 71" fill="none" xmlns="http://www.w3.org/2000/svg">
<g clip-path="url(#clip0_14_111)">
<path d="M37.5 71C58.2107 71 75 55.1061 75 35.5C75 15.8939 58.2107 0 37.5 0C16.7893 0 0 15.8939 0 35.5C0 55.1061 16.7893 71 37.5 71Z" fill="#2787F5"/>
<path d="M42.9075 18.8247H32.0925C22.2224 18.8247 19.8853 21.0372 19.8853 30.3809V40.6191C19.8853 49.9628 22.2224 52.1753 32.0925 52.1753H42.9075C52.7776 52.1753 55.1147 49.9628 55.1147 40.6191V30.3809C55.1147 21.0372 52.7527 18.8247 42.9075 18.8247ZM48.3274 42.6194H45.7639C44.7942 42.6194 44.4961 41.89 42.7559 40.219C41.239 38.8323 40.5681 38.6423 40.1924 38.6423C39.6702 38.6423 39.5208 38.781 39.5208 39.466V41.655C39.5208 42.2436 39.3215 42.5965 37.6809 42.5965C34.9709 42.5965 31.9629 41.0434 29.8491 38.1479C26.6667 33.9115 25.7966 30.7338 25.7966 30.0752C25.7966 29.7222 25.9431 29.3929 26.6667 29.3929H29.2302C29.877 29.3929 30.1252 29.6751 30.3735 30.3345C31.6414 33.7943 33.7551 36.8306 34.6216 36.8306C34.9446 36.8306 35.094 36.6919 35.094 35.9125V32.3348C34.9944 30.6874 34.0745 30.5459 34.0745 29.958C34.0745 29.6758 34.3228 29.3929 34.7212 29.3929H38.7495C39.2966 29.3929 39.4951 29.6751 39.4951 30.2873V35.1117C39.4951 35.6297 39.7434 35.8176 39.8928 35.8176C40.2158 35.8176 40.4897 35.629 41.0859 35.0646C42.9258 33.1114 44.2434 30.0987 44.2434 30.0987C44.4177 29.7458 44.7158 29.4165 45.3625 29.4165H47.926C48.6965 29.4165 48.8708 29.793 48.6965 30.3109C48.3735 31.7233 45.241 35.9125 45.241 35.9125C44.9678 36.3362 44.8682 36.5248 45.241 36.9949C45.5142 37.3478 46.4128 38.0772 47.0061 38.7366C48.1003 39.9153 48.9456 40.902 49.1689 41.5842C49.4216 42.2665 49.0481 42.6194 48.3274 42.6194Z" fill="white"/>
</g>
<defs>
<clipPath id="clip0_14_111">
<rect width="75" height="71" fill="white"/>
</clipPath>
</defs>
</svg>
