<svg width="75" height="71" viewBox="0 0 75 71" fill="none" xmlns="http://www.w3.org/2000/svg">
<g clip-path="url(#clip0_14_116)">
<path d="M37.5 0C16.7892 0 0 15.8937 0 35.5C0 55.1063 16.7892 71 37.5 71C58.2108 71 75 55.1063 75 35.5C75 15.8937 58.2108 0 37.5 0Z" fill="#40B3E0"/>
<path d="M55.7468 20.4211L49.049 52.3897C49.049 52.3897 48.1124 54.6068 45.5363 53.5426L30.0799 42.3246L24.4595 39.7531L14.9984 36.7378C14.9984 36.7378 13.5465 36.2502 13.4058 35.186C13.2655 34.1219 15.0453 33.5456 15.0453 33.5456L52.6554 19.5785C52.6554 19.5785 55.7468 18.2928 55.7468 20.4211Z" fill="white"/>
<path d="M28.8919 52.0306C28.8919 52.0306 28.4407 51.9907 27.8785 50.3056C27.3166 48.6207 24.4596 39.7529 24.4596 39.7529L47.1755 26.0965C47.1755 26.0965 48.4871 25.3427 48.4403 26.0965C48.4403 26.0965 48.6743 26.2294 47.9718 26.85C47.2693 27.471 30.1268 42.0585 30.1268 42.0585" fill="#D2E5F1"/>
<path d="M36.0063 46.6257L29.8926 51.9025C29.8926 51.9025 29.4148 52.2458 28.8918 52.0306L30.0625 42.229" fill="#B5CFE4"/>
</g>
<defs>
<clipPath id="clip0_14_116">
<rect width="75" height="71" fill="white"/>
</clipPath>
</defs>
</svg>
