<svg width="75" height="71" viewBox="0 0 75 71" fill="none" xmlns="http://www.w3.org/2000/svg">
<g clip-path="url(#clip0_14_122)">
<path d="M37.5 71C58.2107 71 75 55.1061 75 35.5C75 15.8939 58.2107 0 37.5 0C16.7893 0 0 15.8939 0 35.5C0 55.1061 16.7893 71 37.5 71Z" fill="#ECE5DD"/>
<path d="M37.5 71C58.2107 71 75 55.1061 75 35.5C75 15.8939 58.2107 0 37.5 0C16.7893 0 0 15.8939 0 35.5C0 55.1061 16.7893 71 37.5 71Z" fill="#ECE5DD"/>
<path d="M75 35.4999C75 25.6056 70.7225 16.6582 63.8247 10.2203L42.3912 26.239L35.8695 27.7824L14.6739 13.8913L9.2323 12.1741C8.50808 12.9599 7.82092 13.777 7.17126 14.6214L54.0756 67.3497C66.4718 61.5571 75 49.4722 75 35.4999Z" fill="#D9CBBD"/>
<path d="M75 35.5C75 27.6383 72.2985 20.375 67.7292 14.4923L65.1359 16.4187V59.4938C71.2604 53.1752 75 44.7515 75 35.5Z" fill="#AC2201"/>
<path d="M60.9561 7.80347L38.4265 23.9354C37.8784 24.3279 37.1215 24.3279 36.5733 23.9354L14.0439 7.80347C11.4486 9.77566 9.1368 12.0679 7.1745 14.6171L36.5518 36.4373C37.1084 36.8508 37.8914 36.8508 38.448 36.4373L67.8253 14.6171C65.8632 12.0678 63.5514 9.7758 60.9561 7.80347Z" fill="#CD2900"/>
<path d="M9.86411 59.4938V16.4187L7.27075 14.4923C2.70146 20.375 0 27.6383 0 35.5C0 44.7515 3.7396 53.1752 9.86411 59.4938Z" fill="#AC2201"/>
</g>
<defs>
<clipPath id="clip0_14_122">
<rect width="75" height="71" fill="white"/>
</clipPath>
</defs>
</svg>
